<?xml version="1.0" encoding="UTF-8"?>
<!DOCTYPE svg PUBLIC "-//W3C//DTD SVG 1.1//EN" "http://www.w3.org/Graphics/SVG/1.1/DTD/svg11.dtd">
<svg xmlns="http://www.w3.org/2000/svg" version="1.1" width="528px" height="473px" style="shape-rendering:geometricPrecision; text-rendering:geometricPrecision; image-rendering:optimizeQuality; fill-rule:evenodd; clip-rule:evenodd" xmlns:xlink="http://www.w3.org/1999/xlink">
<g><path style="opacity:0.066" fill="#010f0e" d="M 382.5,24.5 C 372.436,21.0678 362.103,18.7345 351.5,17.5C 347.688,16.6762 343.688,16.1762 339.5,16C 287.998,15.1683 236.665,15.335 185.5,16.5C 181.486,16.3345 177.486,16.5012 173.5,17C 163.358,19.0602 153.358,21.5602 143.5,24.5C 154.883,19.4858 166.883,16.3192 179.5,15C 235.167,14.3333 290.833,14.3333 346.5,15C 359.117,16.3192 371.117,19.4858 382.5,24.5 Z"/></g>
<g><path style="opacity:0.781" fill="#00957e" d="M 185.5,16.5 C 236.665,15.335 287.998,15.1683 339.5,16C 343.688,16.1762 347.688,16.6762 351.5,17.5C 296.174,16.5712 240.841,16.2378 185.5,16.5 Z"/></g>
<g><path style="opacity:1" fill="#01af94" d="M 185.5,16.5 C 240.841,16.2378 296.174,16.5712 351.5,17.5C 362.103,18.7345 372.436,21.0678 382.5,24.5C 383.78,25.9313 385.447,26.5979 387.5,26.5C 394.764,28.7984 401.43,32.1317 407.5,36.5C 407.973,37.9063 408.973,38.573 410.5,38.5C 411.492,38.3284 412.158,38.6618 412.5,39.5C 412.973,40.9063 413.973,41.573 415.5,41.5C 415.973,42.9063 416.973,43.573 418.5,43.5C 419.539,45.5311 421.205,46.8645 423.5,47.5C 424.262,49.2624 425.596,50.2624 427.5,50.5C 433.785,57.4519 440.452,64.1186 447.5,70.5C 448.08,72.7488 449.413,74.4154 451.5,75.5C 451.738,77.4044 452.738,78.7377 454.5,79.5C 454.427,81.0269 455.094,82.0269 456.5,82.5C 456.427,84.0269 457.094,85.0269 458.5,85.5C 458.427,87.0269 459.094,88.0269 460.5,88.5C 460.75,90.674 461.75,92.3406 463.5,93.5C 464.338,93.8417 464.672,94.5084 464.5,95.5C 464.974,98.6286 466.308,101.295 468.5,103.5C 468.502,107.165 469.835,110.165 472.5,112.5C 472.12,114.698 472.787,116.365 474.5,117.5C 474.054,120.01 474.72,122.01 476.5,123.5C 478.914,134.888 480.914,146.222 482.5,157.5C 483.665,209.332 483.832,261.332 483,313.5C 482.567,322.481 481.067,331.148 478.5,339.5C 476.723,342.505 475.723,345.838 475.5,349.5C 475.267,352.542 474.267,355.208 472.5,357.5C 471.069,358.78 470.402,360.447 470.5,362.5C 470.34,364.153 469.674,365.486 468.5,366.5C 466.992,368.181 465.992,370.181 465.5,372.5C 465.008,374.819 464.008,376.819 462.5,378.5C 461.094,378.973 460.427,379.973 460.5,381.5C 460.672,382.492 460.338,383.158 459.5,383.5C 458.094,383.973 457.427,384.973 457.5,386.5C 456.094,386.973 455.427,387.973 455.5,389.5C 454.094,389.973 453.427,390.973 453.5,392.5C 432.762,418.583 406.762,437.25 375.5,448.5C 373.485,449.924 371.152,450.59 368.5,450.5C 365.123,450.068 362.123,450.735 359.5,452.5C 355.542,452.251 351.876,452.918 348.5,454.5C 291.5,454.5 234.5,454.5 177.5,454.5C 171.905,454.246 166.572,453.246 161.5,451.5C 158.093,449.926 154.427,448.926 150.5,448.5C 148.786,447.262 146.786,446.595 144.5,446.5C 137.328,442.99 129.995,439.657 122.5,436.5C 117.012,432.587 111.345,428.921 105.5,425.5C 95.1992,416.867 85.5326,407.533 76.5,397.5C 76.2624,395.596 75.2624,394.262 73.5,393.5C 73.4456,391.368 72.4456,390.035 70.5,389.5C 70.5115,385.687 68.8448,383.02 65.5,381.5C 65.7148,379.821 65.0481,378.821 63.5,378.5C 58.1593,370.147 54.1593,361.147 51.5,351.5C 51.405,349.214 50.7384,347.214 49.5,345.5C 48.9434,340.948 47.9434,336.615 46.5,332.5C 46.4422,325.14 45.9422,317.806 45,310.5C 44.5,259.834 44.3333,209.168 44.5,158.5C 44.6349,152.819 44.9682,147.152 45.5,141.5C 45.2322,139.901 45.5655,138.568 46.5,137.5C 47.6572,134.727 48.3239,131.727 48.5,128.5C 49.9238,126.485 50.5905,124.152 50.5,121.5C 52.0739,119.898 52.7406,117.898 52.5,115.5C 54.8337,113.824 55.8337,111.491 55.5,108.5C 58.8681,104.431 61.2014,99.7639 62.5,94.5C 64.9305,92.954 66.2639,90.6207 66.5,87.5C 67.9063,87.0269 68.573,86.0269 68.5,84.5C 69.9063,84.0269 70.573,83.0269 70.5,81.5C 72.984,79.1997 74.984,76.5331 76.5,73.5C 84.5,64.8333 92.8333,56.5 101.5,48.5C 103.749,47.9202 105.415,46.5869 106.5,44.5C 108.027,44.573 109.027,43.9063 109.5,42.5C 111.027,42.573 112.027,41.9063 112.5,40.5C 114.027,40.573 115.027,39.9063 115.5,38.5C 117.027,38.573 118.027,37.9063 118.5,36.5C 119.514,35.3263 120.847,34.6596 122.5,34.5C 124.027,34.573 125.027,33.9063 125.5,32.5C 126.209,31.596 127.209,31.2627 128.5,31.5C 130.967,31.2451 132.967,30.2451 134.5,28.5C 135.514,27.3263 136.847,26.6596 138.5,26.5C 140.698,26.8799 142.365,26.2132 143.5,24.5C 153.358,21.5602 163.358,19.0602 173.5,17C 177.486,16.5012 181.486,16.3345 185.5,16.5 Z"/></g>
<g><path style="opacity:0.588" fill="#0e352e" d="M 143.5,24.5 C 142.365,26.2132 140.698,26.8799 138.5,26.5C 139.78,25.0687 141.447,24.4021 143.5,24.5 Z"/></g>
<g><path style="opacity:0.09" fill="#061816" d="M 382.5,24.5 C 384.553,24.4021 386.22,25.0687 387.5,26.5C 385.447,26.5979 383.78,25.9313 382.5,24.5 Z"/></g>
<g><path style="opacity:0.408" fill="#0d3a33" d="M 134.5,28.5 C 132.967,30.2451 130.967,31.2451 128.5,31.5C 129.911,29.461 131.911,28.461 134.5,28.5 Z"/></g>
<g><path style="opacity:0.341" fill="#0b2721" d="M 125.5,32.5 C 125.027,33.9063 124.027,34.573 122.5,34.5C 122.973,33.0937 123.973,32.427 125.5,32.5 Z"/></g>
<g><path style="opacity:0.012" fill="#081916" d="M 407.5,36.5 C 409.027,36.427 410.027,37.0937 410.5,38.5C 408.973,38.573 407.973,37.9063 407.5,36.5 Z"/></g>
<g><path style="opacity:0.318" fill="#092520" d="M 118.5,36.5 C 118.027,37.9063 117.027,38.573 115.5,38.5C 115.973,37.0937 116.973,36.427 118.5,36.5 Z"/></g>
<g><path style="opacity:0.408" fill="#09312b" d="M 115.5,38.5 C 115.027,39.9063 114.027,40.573 112.5,40.5C 112.973,39.0937 113.973,38.427 115.5,38.5 Z"/></g>
<g><path style="opacity:0.004" fill="#041210" d="M 412.5,39.5 C 414.027,39.427 415.027,40.0937 415.5,41.5C 413.973,41.573 412.973,40.9063 412.5,39.5 Z"/></g>
<g><path style="opacity:0.396" fill="#0b302a" d="M 112.5,40.5 C 112.027,41.9063 111.027,42.573 109.5,42.5C 109.973,41.0937 110.973,40.427 112.5,40.5 Z"/></g>
<g><path style="opacity:0.004" fill="#041210" d="M 415.5,41.5 C 417.027,41.427 418.027,42.0937 418.5,43.5C 416.973,43.573 415.973,42.9063 415.5,41.5 Z"/></g>
<g><path style="opacity:0.349" fill="#0a2c25" d="M 109.5,42.5 C 109.027,43.9063 108.027,44.573 106.5,44.5C 106.973,43.0937 107.973,42.427 109.5,42.5 Z"/></g>
<g><path style="opacity:0.58" fill="#0d3028" d="M 418.5,43.5 C 420.754,44.1237 422.421,45.457 423.5,47.5C 421.205,46.8645 419.539,45.5311 418.5,43.5 Z"/></g>
<g><path style="opacity:0.518" fill="#0b362f" d="M 106.5,44.5 C 105.415,46.5869 103.749,47.9202 101.5,48.5C 102.585,46.4131 104.251,45.0798 106.5,44.5 Z"/></g>
<g><path style="opacity:0.012" fill="#0a1c18" d="M 423.5,47.5 C 425.404,47.7376 426.738,48.7376 427.5,50.5C 425.596,50.2624 424.262,49.2624 423.5,47.5 Z"/></g>
<g><path style="opacity:0.192" fill="#0b2520" d="M 427.5,50.5 C 435.188,56.1878 441.854,62.8544 447.5,70.5C 440.452,64.1186 433.785,57.4519 427.5,50.5 Z"/></g>
<g><path style="opacity:0.29" fill="#0a2b25" d="M 101.5,48.5 C 92.8333,56.5 84.5,64.8333 76.5,73.5C 83.1667,63.5 91.5,55.1667 101.5,48.5 Z"/></g>
<g><path style="opacity:0.373" fill="#0a211d" d="M 447.5,70.5 C 449.587,71.5846 450.92,73.2512 451.5,75.5C 449.413,74.4154 448.08,72.7488 447.5,70.5 Z"/></g>
<g><path style="opacity:0.522" fill="#09312a" d="M 76.5,73.5 C 74.984,76.5331 72.984,79.1997 70.5,81.5C 71.5293,78.1092 73.5293,75.4426 76.5,73.5 Z"/></g>
<g><path style="opacity:0.369" fill="#09221d" d="M 451.5,75.5 C 453.262,76.2623 454.262,77.5956 454.5,79.5C 452.738,78.7377 451.738,77.4044 451.5,75.5 Z"/></g>
<g><path style="opacity:0.188" fill="#061917" d="M 454.5,79.5 C 455.906,79.9731 456.573,80.9731 456.5,82.5C 455.094,82.0269 454.427,81.0269 454.5,79.5 Z"/></g>
<g><path style="opacity:0.286" fill="#082e28" d="M 70.5,81.5 C 70.573,83.0269 69.9063,84.0269 68.5,84.5C 68.427,82.9731 69.0937,81.9731 70.5,81.5 Z"/></g>
<g><path style="opacity:0.2" fill="#061b17" d="M 456.5,82.5 C 457.906,82.9731 458.573,83.9731 458.5,85.5C 457.094,85.0269 456.427,84.0269 456.5,82.5 Z"/></g>
<g><path style="opacity:0.243" fill="#06231f" d="M 68.5,84.5 C 68.573,86.0269 67.9063,87.0269 66.5,87.5C 66.427,85.9731 67.0937,84.9731 68.5,84.5 Z"/></g>
<g><path style="opacity:0.161" fill="#061816" d="M 458.5,85.5 C 459.906,85.9731 460.573,86.9731 460.5,88.5C 459.094,88.0269 458.427,87.0269 458.5,85.5 Z"/></g>
<g><path style="opacity:0.102" fill="#061815" d="M 460.5,88.5 C 462.25,89.6594 463.25,91.326 463.5,93.5C 461.75,92.3406 460.75,90.674 460.5,88.5 Z"/></g>
<g><path style="opacity:0.749" fill="#0a4d40" d="M 66.5,87.5 C 66.2639,90.6207 64.9305,92.954 62.5,94.5C 63.0787,91.6689 64.412,89.3356 66.5,87.5 Z"/></g>
<g><path style="opacity:1" fill="#fbfcfc" d="M 399.5,168.5 C 402.691,184.695 403.358,201.028 401.5,217.5C 394.432,255.305 377.599,287.972 351,315.5C 320.373,349.234 282.539,370.067 237.5,378C 189.945,383.859 152.111,367.693 124,329.5C 104.711,296.27 104.711,262.937 124,229.5C 139.372,207.473 159.538,191.306 184.5,181C 191.283,175.518 197.783,169.685 204,163.5C 213.445,147.13 224.945,132.297 238.5,119C 247.11,110.859 257.11,105.025 268.5,101.5C 272.767,100.744 276.767,99.411 280.5,97.5C 298.426,92.0236 316.426,92.1902 334.5,98C 361.165,106.996 380.665,124.163 393,149.5C 395.331,155.847 397.498,162.18 399.5,168.5 Z"/></g>
<g><path style="opacity:1" fill="#c4d1cf" d="M 280.5,97.5 C 276.767,99.411 272.767,100.744 268.5,101.5C 272.085,99.1939 276.085,97.8606 280.5,97.5 Z"/></g>
<g><path style="opacity:0.078" fill="#0b2722" d="M 464.5,95.5 C 466.873,97.5792 468.206,100.246 468.5,103.5C 466.308,101.295 464.974,98.6286 464.5,95.5 Z"/></g>
<g><path style="opacity:0.702" fill="#0a4a3e" d="M 62.5,94.5 C 61.2014,99.7639 58.8681,104.431 55.5,108.5C 56.7986,103.236 59.1319,98.5694 62.5,94.5 Z"/></g>
<g><path style="opacity:0.694" fill="#0b3730" d="M 468.5,103.5 C 470.625,106.088 471.958,109.088 472.5,112.5C 469.835,110.165 468.502,107.165 468.5,103.5 Z"/></g>
<g><path style="opacity:0.698" fill="#09443a" d="M 55.5,108.5 C 55.8337,111.491 54.8337,113.824 52.5,115.5C 52.9348,112.843 53.9348,110.509 55.5,108.5 Z"/></g>
<g><path style="opacity:1" fill="#1fae95" d="M 271.5,113.5 C 277.546,115.014 283.546,116.848 289.5,119C 296.2,118.988 302.866,118.655 309.5,118C 311.444,120.153 311.944,122.653 311,125.5C 298.54,132.954 285.706,133.454 272.5,127C 266.67,122.525 266.337,118.025 271.5,113.5 Z"/></g>
<g><path style="opacity:0.537" fill="#0b332c" d="M 472.5,112.5 C 473.931,113.78 474.598,115.447 474.5,117.5C 472.787,116.365 472.12,114.698 472.5,112.5 Z"/></g>
<g><path style="opacity:0.506" fill="#082d28" d="M 52.5,115.5 C 52.7406,117.898 52.0739,119.898 50.5,121.5C 50.595,119.214 51.2616,117.214 52.5,115.5 Z"/></g>
<g><path style="opacity:1" fill="#1fad95" d="M 344.5,118.5 C 360.757,123.243 372.257,133.577 379,149.5C 381.119,157.532 378.286,160.865 370.5,159.5C 367.515,154.368 365.015,149.035 363,143.5C 356.53,136.853 349.363,131.187 341.5,126.5C 340.386,125.277 340.219,123.944 341,122.5C 342.376,121.295 343.542,119.962 344.5,118.5 Z"/></g>
<g><path style="opacity:0.588" fill="#0c352f" d="M 474.5,117.5 C 475.738,119.214 476.405,121.214 476.5,123.5C 474.72,122.01 474.054,120.01 474.5,117.5 Z"/></g>
<g><path style="opacity:0.49" fill="#092b25" d="M 50.5,121.5 C 50.5905,124.152 49.9238,126.485 48.5,128.5C 48.4095,125.848 49.0762,123.515 50.5,121.5 Z"/></g>
<g><path style="opacity:0.204" fill="#08211c" d="M 476.5,123.5 C 480.407,134.38 482.407,145.714 482.5,157.5C 480.914,146.222 478.914,134.888 476.5,123.5 Z"/></g>
<g><path style="opacity:0.208" fill="#072520" d="M 48.5,128.5 C 48.3239,131.727 47.6572,134.727 46.5,137.5C 46.2153,134.171 46.8819,131.171 48.5,128.5 Z"/></g>
<g><path style="opacity:1" fill="#1bae95" d="M 246.5,134.5 C 250.131,134.16 253.464,134.994 256.5,137C 267.479,145.291 272.479,156.291 271.5,170C 272.012,184.632 267.012,196.966 256.5,207C 252.284,209.803 248.117,209.97 244,207.5C 243.333,205.833 243.333,204.167 244,202.5C 264.214,182.425 264.547,162.091 245,141.5C 244.167,138.829 244.667,136.496 246.5,134.5 Z"/></g>
<g><path style="opacity:1" fill="#1aad94" d="M 338.5,153.5 C 334.486,153.334 330.486,153.501 326.5,154C 325.263,154.232 324.263,154.732 323.5,155.5C 321.076,156.03 318.743,156.864 316.5,158C 311.533,161.966 306.866,166.299 302.5,171C 295.947,173.736 293.114,171.57 294,164.5C 304.191,149.416 318.358,142.249 336.5,143C 341.257,144.069 343.091,146.902 342,151.5C 340.887,152.305 339.721,152.972 338.5,153.5 Z"/></g>
<g><path style="opacity:0.025" fill="#081d19" d="M 45.5,141.5 C 44.9682,147.152 44.6349,152.819 44.5,158.5C 44.1667,158.5 43.8333,158.5 43.5,158.5C 43.216,152.583 43.8827,146.916 45.5,141.5 Z"/></g>
<g><path style="opacity:1" fill="#c1ccca" d="M 338.5,153.5 C 333.668,154.4 328.668,155.066 323.5,155.5C 324.263,154.732 325.263,154.232 326.5,154C 330.486,153.501 334.486,153.334 338.5,153.5 Z"/></g>
<g><path style="opacity:1" fill="#1bad94" d="M 232.5,162.5 C 235.044,162.104 237.211,162.771 239,164.5C 239.958,175.09 236.124,183.59 227.5,190C 220.923,194.782 213.59,196.782 205.5,196C 201.5,193 201.5,190 205.5,187C 211.221,185.908 216.554,183.908 221.5,181C 224.804,174.605 228.471,168.438 232.5,162.5 Z"/></g>
<g><path style="opacity:1" fill="#18ad94" d="M 343.5,175.5 C 349.625,174.143 353.459,176.477 355,182.5C 357.976,198.597 354.642,213.264 345,226.5C 340.5,231 336,235.5 331.5,240C 326.659,242.921 321.659,245.588 316.5,248C 292.223,254.53 269.556,264.53 248.5,278C 236.226,284.48 223.226,288.647 209.5,290.5C 206.833,290.333 204.167,290.167 201.5,290C 198.552,286.073 199.218,282.739 203.5,280C 219.579,276.968 234.912,271.635 249.5,264C 267.127,251.857 286.461,243.523 307.5,239C 314.401,235.768 321.067,232.101 327.5,228C 341.863,214.768 346.53,198.935 341.5,180.5C 341.437,178.486 342.103,176.819 343.5,175.5 Z"/></g>
<g><path style="opacity:0.754" fill="#0d6456" d="M 43.5,158.5 C 43.8333,158.5 44.1667,158.5 44.5,158.5C 44.3333,209.168 44.5,259.834 45,310.5C 45.9422,317.806 46.4422,325.14 46.5,332.5C 45.5655,331.432 45.2322,330.099 45.5,328.5C 45.3315,322.966 44.6649,317.633 43.5,312.5C 42.1667,261.167 42.1667,209.833 43.5,158.5 Z"/></g>
<g><path style="opacity:1" fill="#1cad94" d="M 375.5,183.5 C 379.025,183.346 381.859,184.679 384,187.5C 385.966,196.153 385.966,204.82 384,213.5C 381.813,219.441 378.146,220.775 373,217.5C 372.833,215.667 372.667,213.833 372.5,212C 373.751,204.829 373.751,197.662 372.5,190.5C 372.667,189.167 372.833,187.833 373,186.5C 374.045,185.627 374.878,184.627 375.5,183.5 Z"/></g>
<g><path style="opacity:1" fill="#19ad94" d="M 305.5,198.5 C 309.962,197.803 312.629,199.637 313.5,204C 312.587,207.992 310.754,211.492 308,214.5C 298.225,224.473 286.392,228.973 272.5,228C 270.352,225.925 270.018,223.592 271.5,221C 277.446,217.237 283.779,214.237 290.5,212C 295.695,207.634 300.695,203.134 305.5,198.5 Z"/></g>
<g><path style="opacity:1" fill="#47aa98" d="M 205.5,215.5 C 199.773,215.153 194.106,214.319 188.5,213C 180.507,212.5 172.507,212.334 164.5,212.5C 165.263,211.732 166.263,211.232 167.5,211C 180.657,209.573 193.324,211.073 205.5,215.5 Z"/></g>
<g><path style="opacity:1" fill="#3aa795" d="M 399.5,168.5 C 400.935,169.79 401.935,171.456 402.5,173.5C 403.666,187.154 403.833,200.821 403,214.5C 402.768,215.737 402.268,216.737 401.5,217.5C 403.358,201.028 402.691,184.695 399.5,168.5 Z"/></g>
<g><path style="opacity:1" fill="#15ae94" d="M 164.5,212.5 C 172.507,212.334 180.507,212.5 188.5,213C 194.106,214.319 199.773,215.153 205.5,215.5C 210.771,218.726 210.771,221.893 205.5,225C 199.558,226.035 193.892,225.368 188.5,223C 181.167,222.333 173.833,222.333 166.5,223C 163.856,224.57 161.023,225.737 158,226.5C 153.794,225.472 152.461,222.805 154,218.5C 156.692,215.071 160.192,213.071 164.5,212.5 Z"/></g>
<g><path style="opacity:1" fill="#1cad94" d="M 368.5,237.5 C 375.977,238.925 377.477,242.925 373,249.5C 364.616,262.381 352.783,269.714 337.5,271.5C 331.992,272.161 329.825,269.828 331,264.5C 331.833,263.667 332.667,262.833 333.5,262C 348.947,259.026 360.614,250.86 368.5,237.5 Z"/></g>
<g><path style="opacity:1" fill="#16ad94" d="M 210.5,256.5 C 204.131,256.653 197.797,256.32 191.5,255.5C 185.142,254.628 178.809,253.628 172.5,252.5C 169.949,251.155 167.116,250.489 164,250.5C 159.124,251.075 154.291,251.908 149.5,253C 148.944,253.383 148.611,253.883 148.5,254.5C 145.355,256.191 142.021,256.691 138.5,256C 136.813,254.087 136.313,251.92 137,249.5C 142.818,243.443 149.985,240.277 158.5,240C 163.167,239.333 167.833,239.333 172.5,240C 182.493,242.874 192.66,244.708 203,245.5C 205.833,245.333 208.667,245.167 211.5,245C 217.202,243.544 222.702,241.71 228,239.5C 232.749,239.586 234.415,241.92 233,246.5C 226.921,252.955 219.421,256.288 210.5,256.5 Z"/></g>
<g><path style="opacity:1" fill="#d3dddc" d="M 172.5,252.5 C 164.383,252.114 156.383,252.781 148.5,254.5C 148.611,253.883 148.944,253.383 149.5,253C 154.291,251.908 159.124,251.075 164,250.5C 167.116,250.489 169.949,251.155 172.5,252.5 Z"/></g>
<g><path style="opacity:1" fill="#bbccc9" d="M 191.5,255.5 C 197.797,256.32 204.131,256.653 210.5,256.5C 208.022,257.164 205.355,257.497 202.5,257.5C 198.531,257.706 194.865,257.039 191.5,255.5 Z"/></g>
<g><path style="opacity:1" fill="#1cac93" d="M 169.5,265.5 C 174.126,264.7 177.96,266.034 181,269.5C 182.041,272.636 181.207,275.136 178.5,277C 175.5,277.667 172.5,277.667 169.5,277C 165.555,273.169 165.555,269.336 169.5,265.5 Z"/></g>
<g><path style="opacity:1" fill="#21ad95" d="M 299.5,271.5 C 301.989,271.298 304.323,271.798 306.5,273C 308.664,276.815 310.831,280.649 313,284.5C 317.859,288.944 323.692,290.944 330.5,290.5C 336.149,289.54 341.815,289.373 347.5,290C 349.283,291.067 349.783,292.567 349,294.5C 346.124,299.023 341.957,301.523 336.5,302C 316.833,304.007 303.167,296.007 295.5,278C 296.205,275.458 297.539,273.292 299.5,271.5 Z"/></g>
<g><path style="opacity:1" fill="#1cad95" d="M 161.5,308.5 C 164.907,310.074 168.573,311.074 172.5,311.5C 189.431,314.082 205.765,311.916 221.5,305C 232.093,305.697 233.093,309.363 224.5,316C 217.575,319.796 210.242,322.462 202.5,324C 191.167,324.667 179.833,324.667 168.5,324C 147.965,319.457 133.465,307.624 125,288.5C 124.333,284.167 124.333,279.833 125,275.5C 126.864,272.793 129.364,271.959 132.5,273C 136.605,281.376 141.105,289.543 146,297.5C 150.435,302.292 155.602,305.958 161.5,308.5 Z"/></g>
<g><path style="opacity:1" fill="#19ad94" d="M 218.5,358.5 C 206.795,359.458 195.462,357.958 184.5,354C 180.49,353.499 176.49,352.999 172.5,352.5C 166.834,351.348 162.334,348.348 159,343.5C 157.332,337.507 159.498,335.007 165.5,336C 177.584,344.565 191.084,348.398 206,347.5C 231.998,347.011 250.998,335.344 263,312.5C 264.206,307.469 265.54,302.469 267,297.5C 269.838,293.965 273.005,293.632 276.5,296.5C 278.089,304.087 277.256,311.42 274,318.5C 262.076,340.92 243.576,354.253 218.5,358.5 Z"/></g>
<g><path style="opacity:1" fill="#a4c2bd" d="M 161.5,308.5 C 165.534,308.517 169.201,309.517 172.5,311.5C 168.573,311.074 164.907,310.074 161.5,308.5 Z"/></g>
<g><path style="opacity:1" fill="#1fad95" d="M 303.5,314.5 C 311.886,316.305 313.719,320.972 309,328.5C 304.392,336.441 297.892,342.275 289.5,346C 283.021,348.168 280.188,346.001 281,339.5C 285.333,335.833 289.667,332.167 294,328.5C 296.606,323.405 299.772,318.738 303.5,314.5 Z"/></g>
<g><path style="opacity:0.025" fill="#081d1a" d="M 43.5,312.5 C 44.6649,317.633 45.3315,322.966 45.5,328.5C 43.9216,323.417 43.2549,318.084 43.5,312.5 Z"/></g>
<g><path style="opacity:0.059" fill="#09231f" d="M 46.5,332.5 C 47.9434,336.615 48.9434,340.948 49.5,345.5C 47.4249,341.526 46.4249,337.192 46.5,332.5 Z"/></g>
<g><path style="opacity:0.141" fill="#061b17" d="M 478.5,339.5 C 478.277,343.162 477.277,346.495 475.5,349.5C 475.723,345.838 476.723,342.505 478.5,339.5 Z"/></g>
<g><path style="opacity:0.022" fill="#051814" d="M 49.5,345.5 C 50.7384,347.214 51.405,349.214 51.5,351.5C 49.9261,349.898 49.2594,347.898 49.5,345.5 Z"/></g>
<g><path style="opacity:1" fill="#48ab99" d="M 172.5,352.5 C 176.49,352.999 180.49,353.499 184.5,354C 195.462,357.958 206.795,359.458 218.5,358.5C 210.01,359.657 201.343,359.824 192.5,359C 185.422,357.738 178.755,355.572 172.5,352.5 Z"/></g>
<g><path style="opacity:0.212" fill="#081f1b" d="M 472.5,357.5 C 472.598,359.553 471.931,361.22 470.5,362.5C 470.402,360.447 471.069,358.78 472.5,357.5 Z"/></g>
<g><path style="opacity:0.141" fill="#091f1b" d="M 468.5,366.5 C 468.539,369.089 467.539,371.089 465.5,372.5C 465.992,370.181 466.992,368.181 468.5,366.5 Z"/></g>
<g><path style="opacity:0.612" fill="#0e3a32" d="M 63.5,378.5 C 65.0481,378.821 65.7148,379.821 65.5,381.5C 64.5987,380.71 63.9321,379.71 63.5,378.5 Z"/></g>
<g><path style="opacity:0.11" fill="#0a1d18" d="M 462.5,378.5 C 462.573,380.027 461.906,381.027 460.5,381.5C 460.427,379.973 461.094,378.973 462.5,378.5 Z"/></g>
<g><path style="opacity:0.933" fill="#0f5246" d="M 65.5,381.5 C 68.8448,383.02 70.5115,385.687 70.5,389.5C 68.347,387.206 66.6803,384.54 65.5,381.5 Z"/></g>
<g><path style="opacity:0.004" fill="#071612" d="M 459.5,383.5 C 459.573,385.027 458.906,386.027 457.5,386.5C 457.427,384.973 458.094,383.973 459.5,383.5 Z"/></g>
<g><path style="opacity:0.004" fill="#061613" d="M 457.5,386.5 C 457.573,388.027 456.906,389.027 455.5,389.5C 455.427,387.973 456.094,386.973 457.5,386.5 Z"/></g>
<g><path style="opacity:0.004" fill="#000c09" d="M 455.5,389.5 C 455.573,391.027 454.906,392.027 453.5,392.5C 453.427,390.973 454.094,389.973 455.5,389.5 Z"/></g>
<g><path style="opacity:0.008" fill="#0b201b" d="M 70.5,389.5 C 72.4456,390.035 73.4456,391.368 73.5,393.5C 72.0256,392.564 71.0256,391.23 70.5,389.5 Z"/></g>
<g><path style="opacity:0.004" fill="#010f0c" d="M 73.5,393.5 C 75.2624,394.262 76.2624,395.596 76.5,397.5C 74.7376,396.738 73.7376,395.404 73.5,393.5 Z"/></g>
<g><path style="opacity:0.027" fill="#000a08" d="M 76.5,397.5 C 85.5326,407.533 95.1992,416.867 105.5,425.5C 93.8779,418.212 84.2112,408.878 76.5,397.5 Z"/></g>
<g><path style="opacity:0.012" fill="#040f0d" d="M 453.5,392.5 C 435.554,417.926 411.887,436.092 382.5,447C 380.26,447.977 377.927,448.477 375.5,448.5C 406.762,437.25 432.762,418.583 453.5,392.5 Z"/></g>
<g><path style="opacity:0.039" fill="#000807" d="M 105.5,425.5 C 111.345,428.921 117.012,432.587 122.5,436.5C 115.973,434.076 110.307,430.409 105.5,425.5 Z"/></g>
<g><path style="opacity:0.02" fill="#000606" d="M 122.5,436.5 C 129.995,439.657 137.328,442.99 144.5,446.5C 136.477,444.501 129.144,441.167 122.5,436.5 Z"/></g>
<g><path style="opacity:0.018" fill="#000806" d="M 144.5,446.5 C 146.786,446.595 148.786,447.262 150.5,448.5C 148.102,448.741 146.102,448.074 144.5,446.5 Z"/></g>
<g><path style="opacity:0.045" fill="#000a06" d="M 150.5,448.5 C 154.427,448.926 158.093,449.926 161.5,451.5C 157.466,451.483 153.799,450.483 150.5,448.5 Z"/></g>
<g><path style="opacity:0.026" fill="#0a1b17" d="M 368.5,450.5 C 365.829,452.118 362.829,452.785 359.5,452.5C 362.123,450.735 365.123,450.068 368.5,450.5 Z"/></g>
<g><path style="opacity:0.125" fill="#041311" d="M 359.5,452.5 C 356.091,453.903 352.425,454.57 348.5,454.5C 351.876,452.918 355.542,452.251 359.5,452.5 Z"/></g>
<g><path style="opacity:0.004" fill="#061310" d="M 177.5,454.5 C 234.5,454.5 291.5,454.5 348.5,454.5C 342.013,455.328 335.346,455.828 328.5,456C 284.5,456.667 240.5,456.667 196.5,456C 189.987,455.828 183.653,455.328 177.5,454.5 Z"/></g>
</svg>
