<?xml version="1.0" encoding="UTF-8"?>
<svg version="1.1" xmlns="http://www.w3.org/2000/svg" width="1034" height="221">
<path d="M0 0 C1.62843431 -0.00389965 3.25686763 -0.00823686 4.88529968 -0.01298523 C8.28155834 -0.02039943 11.67771297 -0.0201916 15.07397461 -0.01489258 C19.38369615 -0.00910813 23.69298649 -0.02602769 28.00263691 -0.04923725 C31.36167304 -0.06411171 34.72060862 -0.0648278 38.07967186 -0.06172752 C39.66657552 -0.062234 41.25348585 -0.067342 42.84035683 -0.07753944 C56.88913149 -0.15675504 69.93601923 1.39060917 82.94921875 7.11328125 C83.72910156 7.43103516 84.50898438 7.74878906 85.3125 8.07617188 C90.70726009 10.3836785 94.66438492 13.3397145 98.94921875 17.30078125 C100.06899719 18.20313296 101.19341141 19.09978977 102.32421875 19.98828125 C116.18306798 32.04485861 124.26112141 49.32479593 126.18425941 67.52518272 C126.53946666 73.01970447 126.51095091 78.51608332 126.48046875 84.01953125 C126.48317419 85.77437554 126.48706526 87.52921836 126.49206543 89.28405762 C126.49791117 92.93479906 126.48955887 96.58514497 126.47070312 100.23583984 C126.44791645 104.86834977 126.46106637 109.49993207 126.48499298 114.13240814 C126.49958575 117.74801368 126.494784 121.36340652 126.48448181 124.97901917 C126.48185154 126.68510555 126.48495059 128.39121254 126.49440002 130.09727478 C126.55659047 144.47328996 125.02357115 158.36079956 117.76171875 171.11328125 C117.37878662 171.81122803 116.99585449 172.5091748 116.60131836 173.22827148 C113.09669898 179.4232625 109.05477746 185.30316247 103.94921875 190.30078125 C103.28921875 190.30078125 102.62921875 190.30078125 101.94921875 190.30078125 C101.94921875 190.96078125 101.94921875 191.62078125 101.94921875 192.30078125 C99.38775305 194.59726774 98.46954303 195.30078125 94.94921875 195.30078125 C94.94921875 195.96078125 94.94921875 196.62078125 94.94921875 197.30078125 C73.07834787 212.11416102 48.78241091 211.07460727 23.39862061 210.8772583 C19.8820367 210.85861844 16.36591596 210.87342842 12.84933949 210.88836765 C9.40263042 210.89905808 5.95618169 210.88989353 2.50949669 210.87498283 C0.89159613 210.86989372 -0.72633269 210.87016628 -2.34422874 210.87652779 C-24.52647357 210.93108012 -46.48579174 205.75657278 -62.92578125 189.86328125 C-65.05078125 187.30078125 -65.05078125 187.30078125 -65.05078125 185.30078125 C-65.61667969 185.11902344 -66.18257812 184.93726563 -66.765625 184.75 C-70.12413042 182.62007605 -71.68203592 179.48400455 -73.61328125 176.11328125 C-73.99935547 175.46552734 -74.38542969 174.81777344 -74.78320312 174.15039062 C-83.50376197 159.27938652 -84.52110252 143.86232604 -84.44921875 127.01953125 C-84.45124811 125.30952837 -84.45416663 123.59952634 -84.45791626 121.88952637 C-84.46229918 118.33300407 -84.45604054 114.77671024 -84.44189453 111.22021484 C-84.42480509 106.7089086 -84.43466822 102.1981382 -84.45261192 97.6868515 C-84.46356004 94.16392124 -84.45995351 90.6411137 -84.45222855 87.11817932 C-84.45025683 85.45675083 -84.45257641 83.79531041 -84.45966721 82.13389587 C-84.51355803 65.96747607 -83.6739742 48.20380439 -73.296875 34.96875 C-71.95310016 33.2464883 -71.95310016 33.2464883 -70.74609375 30.96484375 C-68.69400337 27.7401303 -66.19645783 25.15375334 -63.48828125 22.48828125 C-62.99392578 21.98619141 -62.49957031 21.48410156 -61.99023438 20.96679688 C-58.30426764 17.30078125 -58.30426764 17.30078125 -56.05078125 17.30078125 C-56.05078125 16.64078125 -56.05078125 15.98078125 -56.05078125 15.30078125 C-50.41275101 10.66612927 -43.88057701 7.57980347 -37.11328125 4.98828125 C-36.49453125 4.74625977 -35.87578125 4.50423828 -35.23828125 4.25488281 C-23.82578122 0.10115462 -11.98499131 -0.01210655 0 0 Z " fill="#01AA90" transform="translate(96.05078125,4.69921875)"/>
<path d="M0 0 C9.28476883 7.8187527 16.07759555 17.57609483 17.23828125 29.87109375 C17.35236328 30.97130859 17.46644531 32.07152344 17.58398438 33.20507812 C17.81915218 35.52167592 18.04316418 37.83943405 18.25585938 40.15820312 C18.37380859 41.25970703 18.49175781 42.36121094 18.61328125 43.49609375 C18.76083862 45.00707642 18.76083862 45.00707642 18.91137695 46.54858398 C19.78801865 49.86710619 20.89346572 51.20096809 23.625 53.25 C24.945 53.25 26.265 53.25 27.625 53.25 C27.61339844 51.98285156 27.60179687 50.71570313 27.58984375 49.41015625 C27.58045581 47.71093899 27.57135669 46.01172011 27.5625 44.3125 C27.55412109 43.48169922 27.54574219 42.65089844 27.53710938 41.79492188 C27.48246375 27.75099519 30.19190076 17.11553283 39.625 6.25 C45.92156642 0.55218683 52.26015991 -3.19950783 60.625 -4.75 C61.86636719 -4.99556641 61.86636719 -4.99556641 63.1328125 -5.24609375 C73.67759993 -6.77272715 84.95870372 -5.16828009 93.75 1 C103.7369434 9.20783223 109.81629333 18.31909706 111.625 31.25 C111.82802734 30.15945312 111.82802734 30.15945312 112.03515625 29.046875 C113.77346629 20.92782213 116.67719566 13.97424494 121.625 7.25 C122.285 7.25 122.945 7.25 123.625 7.25 C123.625 6.59 123.625 5.93 123.625 5.25 C124.285 5.25 124.945 5.25 125.625 5.25 C125.625 4.59 125.625 3.93 125.625 3.25 C135.12422877 -5.30136646 145.34043913 -7.37287286 157.83203125 -7.10546875 C170.30347865 -5.93667193 179.06130345 -1.34656251 187.1640625 8.03125 C196.87908028 20.09127207 197.6761758 37.37015401 199.625 52.25 C203.82383732 53.37770036 203.82383732 53.37770036 207.80102539 52.08520508 C209.81824131 50.39286648 209.81824131 50.39286648 210.09155273 47.9284668 C210.08067627 47.02781494 210.0697998 46.12716309 210.05859375 45.19921875 C210.06455566 44.19697266 210.07051758 43.19472656 210.07666016 42.16210938 C210.0719873 41.09798828 210.06731445 40.03386719 210.0625 38.9375 C210.30638567 26.41927701 211.54657416 15.25151246 220.81640625 5.921875 C221.41324219 5.37015625 222.01007813 4.8184375 222.625 4.25 C223.44291016 3.42242187 223.44291016 3.42242187 224.27734375 2.578125 C232.92363271 -5.64093556 244.12872941 -7.25237439 255.62890625 -7.02734375 C264.77623007 -6.58377027 274.20433435 -3.5392235 280.625 3.25 C280.625 3.91 280.625 4.57 280.625 5.25 C281.285 5.25 281.945 5.25 282.625 5.25 C282.625 5.91 282.625 6.57 282.625 7.25 C283.615 7.58 284.605 7.91 285.625 8.25 C290.26426769 15.4254007 296.34186831 26.93953956 295.34765625 35.69140625 C294.98994141 36.95791016 294.98994141 36.95791016 294.625 38.25 C294.33625 39.36761719 294.0475 40.48523438 293.75 41.63671875 C290.02804944 53.59090023 283.84483272 64.82235943 272.4921875 70.9375 C265.84053821 73.81388888 259.8176826 75.39211624 252.5625 75.5 C251.54027344 75.52578125 250.51804687 75.5515625 249.46484375 75.578125 C244.0192117 75.11278106 238.88814832 73.68113599 233.625 72.25 C233.55768677 73.84654419 233.55768677 73.84654419 233.48901367 75.4753418 C233.31835212 79.43633735 233.12953075 83.39629703 232.93530273 87.35620117 C232.85387095 89.06788761 232.77731974 90.77981368 232.70581055 92.49194336 C232.60196801 94.95766655 232.48041116 97.42198555 232.35546875 99.88671875 C232.3130732 101.02919319 232.3130732 101.02919319 232.26982117 102.19474792 C232.02299553 106.66055328 231.39806402 109.699241 228.625 113.25 C224.95718328 115.69521115 221.89046767 115.97237759 217.625 115.25 C215.19380377 113.37984906 213.98430827 111.96861655 212.625 109.25 C212.46873424 106.77167341 212.36686802 104.31688669 212.30859375 101.8359375 C212.28781265 101.10629791 212.26703156 100.37665833 212.24562073 99.62490845 C212.18018083 97.29170237 212.12126632 94.95838279 212.0625 92.625 C212.01930947 91.04425905 211.97569501 89.46352961 211.93164062 87.8828125 C211.82450519 84.00532496 211.72322218 80.12772315 211.625 76.25 C210.14 76.745 210.14 76.745 208.625 77.25 C198.16491627 77.77300419 191.88211078 74.46360047 183.625 68.25 C182.635 68.73210937 181.645 69.21421875 180.625 69.7109375 C179.29185235 70.34934623 177.95850839 70.98734513 176.625 71.625 C175.97660156 71.94210938 175.32820312 72.25921875 174.66015625 72.5859375 C164.95313722 77.19917426 154.31892982 79.18442193 143.77734375 76.05859375 C134.15038946 72.44193397 126.8923292 67.4897492 119.625 60.25 C118.81095703 59.54037109 118.81095703 59.54037109 117.98046875 58.81640625 C116.13643714 56.68540718 115.42332367 54.52864676 114.5 51.875 C114.00113281 50.47121094 114.00113281 50.47121094 113.4921875 49.0390625 C112.68749848 46.45100862 112.10003993 43.91604041 111.625 41.25 C111.47804688 42.0234375 111.33109375 42.796875 111.1796875 43.59375 C109.60400687 50.91070371 107.54861631 55.67301281 102.625 61.25 C102.12226562 61.92804688 101.61953125 62.60609375 101.1015625 63.3046875 C94.92428902 71.28994347 85.48592527 75.68477377 75.625 77.25 C68.84958545 77.70901188 63.13945568 77.04709122 56.625 75.25 C53.79076508 75.07987987 53.79076508 75.07987987 51.625 75.25 C50.06169175 78.37661649 50.36860584 81.74151326 50.265625 85.1796875 C50.20170835 86.79562032 50.13656575 88.41150504 50.0703125 90.02734375 C49.96912359 92.57720594 49.87495935 95.12641649 49.80175781 97.67724609 C49.72839429 100.13778247 49.62459267 102.59550381 49.515625 105.0546875 C49.49341888 106.19549271 49.49341888 106.19549271 49.47076416 107.35934448 C49.27675107 111.16115379 48.93590371 112.92100239 46.28417969 115.72705078 C42.71623272 117.77046367 40.68077596 117.89038568 36.625 117.25 C32.3730315 115.20275591 32.3730315 115.20275591 30.625 112.25 C29.58416794 107.62103638 29.62790314 102.97244654 29.625 98.25 C29.61807129 97.29351562 29.61114258 96.33703125 29.60400391 95.3515625 C29.55700438 88.65047381 29.56871109 81.95097766 29.625 75.25 C28.61614746 75.27066528 28.61614746 75.27066528 27.58691406 75.29174805 C26.25225098 75.30782104 26.25225098 75.30782104 24.890625 75.32421875 C24.01180664 75.33799561 23.13298828 75.35177246 22.22753906 75.3659668 C16.71615684 75.12038457 12.50603357 73.22581878 8.5 69.5 C5.87152167 66.99486254 5.87152167 66.99486254 2.875 67.125 C-0.93010437 68.44215151 -4.37063231 70.2047056 -7.94921875 72.0390625 C-16.74863501 76.43168575 -27.33052945 76.66423974 -36.75 74 C-43.88204696 71.49793762 -52.68772697 68.17666722 -56.5 61.1875 C-56.933125 60.2284375 -56.933125 60.2284375 -57.375 59.25 C-57.99632812 58.66863281 -58.61765625 58.08726562 -59.2578125 57.48828125 C-65.7272465 50.64882427 -67.03455517 40.97848254 -66.82763672 31.9284668 C-66.34421266 22.31253179 -63.02778466 15.88342788 -57.375 8.25 C-56.611875 7.198125 -55.84875 6.14625 -55.0625 5.0625 C-41.17761747 -9.46819102 -16.56015157 -11.63342701 0 0 Z M-42.22265625 23.53125 C-45.34947466 28.19497915 -46.18842068 32.67961279 -45.375 38.25 C-43.43245298 44.44986563 -39.74326539 48.68678455 -34.375 52.25 C-29.32061691 54.56659225 -24.54200865 55.17463365 -19.140625 53.59765625 C-12.65628059 51.06266926 -8.7588986 47.27231688 -5.23828125 41.33203125 C-3.41733631 36.94034052 -3.50979251 31.68193458 -5.09765625 27.21875 C-8.67452883 20.61529293 -13.25058889 16.54430188 -20.375 14.25 C-29.41953272 13.22884308 -36.66303004 16.26215424 -42.22265625 23.53125 Z M235.625 21.25 C231.50094249 28.6679476 231.00116114 34.35005215 233.2109375 42.37890625 C235.41966557 48.14128097 239.39539858 50.55125229 244.82421875 53.17578125 C250.7635252 55.45375792 254.97168585 54.77412765 260.8125 52.25 C265.81222362 49.56553301 268.22659643 46.30338054 270.625 41.25 C270.955 40.59 271.285 39.93 271.625 39.25 C272.42253275 32.58490484 272.01477227 26.93849761 268.3671875 21.19921875 C264.59158558 16.97494665 259.80742992 14.84703878 254.29296875 13.8125 C247.44212359 13.42856472 240.10638979 15.89511899 235.625 21.25 Z M57.625 19.25 C57.625 19.91 57.625 20.57 57.625 21.25 C56.965 21.25 56.305 21.25 55.625 21.25 C53.22679695 23.88684747 53.22679695 23.88684747 52.625 27.25 C51.965 27.25 51.305 27.25 50.625 27.25 C48.76090211 33.97893874 48.74687853 40.21253952 52.2265625 46.39453125 C55.97033088 51.3618217 61.50364562 55.10224605 67.625 56.25 C75.15240059 56.0110349 79.8526739 53.71428987 85.4375 48.75 C89.96899247 43.57115146 90.11407982 39.28268736 90.0078125 32.51953125 C89.29385322 26.42173615 86.39524069 22.93388749 82.0625 18.8125 C74.74181421 14.1197527 64.98091991 15.32684271 57.625 19.25 Z M140.6796875 21.34765625 C136.36508827 26.71907027 134.1055515 30.80078349 134.23046875 37.7734375 C134.98373378 42.50185361 137.32397162 45.86382604 140.625 49.25 C146.36040462 53.3508143 151.63204385 55.18239415 158.625 54.25 C164.49458623 52.17118821 170.86084318 47.87931498 173.6484375 42.14453125 C175.20969086 36.41655625 174.69262606 30.79279099 172.625 25.25 C170.39523837 22.26880459 170.39523837 22.26880459 167.625 20.25 C166.92375 19.6725 166.2225 19.095 165.5 18.5 C158.30045931 13.70030621 146.44213247 15.13393547 140.6796875 21.34765625 Z " fill="#00AF94" transform="translate(476.375,78.75)"/>
<path d="M0 0 C10.48459455 7.74003967 17.13915486 18.63327431 19.6875 31.375 C20.20151879 36.68652749 20.20316051 41.9189666 20.0625 47.25 C20.05734375 47.97960937 20.0521875 48.70921875 20.046875 49.4609375 C18.89320932 70.96856188 3.10319596 91.2790441 -12.05200195 105.28027344 C-27.69859884 119.1596562 -48.61088553 128.25363832 -69.7734375 127.59765625 C-84.82356698 125.94400005 -98.56485714 120.65585533 -108.9375 109.25 C-111.25100117 106.0534437 -113.12211333 102.74834391 -114.9375 99.25 C-115.35128906 98.57710938 -115.76507813 97.90421875 -116.19140625 97.2109375 C-120.54855317 89.34681868 -120.02770868 79.14551312 -118.4296875 70.50390625 C-117.74906785 68.30949464 -116.92796785 66.32205874 -115.9375 64.25 C-115.57398438 63.42113281 -115.21046875 62.59226562 -114.8359375 61.73828125 C-109.20285388 49.58172336 -100.37103235 42.61584801 -88.8125 36.1875 C-79.56179114 31.00245935 -74.79344027 26.29409992 -69.03515625 17.3515625 C-59.77396664 3.65810896 -48.38155702 -3.63684815 -32.2890625 -7.36328125 C-20.97124275 -9.22451739 -9.69306981 -6.00366607 0 0 Z " fill="#FBFBFB" transform="translate(162.9375,50.75)"/>
<path d="M0 0 C5.94028628 4.42242133 5.94028628 4.42242133 7.2265625 8.28125 C7.8865625 8.28125 8.5465625 8.28125 9.2265625 8.28125 C15.74300542 17.91489796 18.57648867 25.34338397 18.2265625 37.28125 C18.23816406 38.64056641 18.23816406 38.64056641 18.25 40.02734375 C17.90694229 49.77330147 12.57789964 58.70948375 6.00390625 65.671875 C3.29914729 68.12101938 0.52795188 69.76015531 -2.7734375 71.28125 C-3.89492188 71.82072266 -3.89492188 71.82072266 -5.0390625 72.37109375 C-15.40519387 77.19374758 -26.87159063 78.07319674 -37.7734375 74.28125 C-39.0934375 74.28125 -40.4134375 74.28125 -41.7734375 74.28125 C-42.89960993 82.01554164 -43.09454819 89.719404 -43.29101562 97.52539062 C-43.71993855 110.38498559 -43.71993855 110.38498559 -47.125 115.1875 C-49.23437239 116.58708358 -50.62488427 116.74679876 -53.1484375 116.78125 C-53.89867187 116.8121875 -54.64890625 116.843125 -55.421875 116.875 C-59.01527102 115.96769735 -60.44639082 114.12036477 -62.7734375 111.28125 C-63.35642795 108.54534422 -63.62928721 106.37345252 -63.69921875 103.625 C-63.73680801 102.86595871 -63.77439728 102.10691742 -63.81312561 101.32487488 C-63.9294784 98.81068275 -64.00921774 96.29694239 -64.0859375 93.78125 C-64.15434418 92.015351 -64.22353197 90.24948211 -64.29345703 88.48364258 C-64.50493081 82.75053463 -64.64721023 77.01679686 -64.7734375 71.28125 C-64.79641907 70.27753357 -64.81940063 69.27381714 -64.84307861 68.23968506 C-64.97743227 62.13454325 -65.07298122 56.03025419 -65.12289429 49.92382812 C-65.1397815 47.9701566 -65.16232845 46.01652494 -65.19082642 44.06298828 C-65.38504654 29.13610557 -64.38845442 17.69740027 -53.7734375 6.28125 C-39.59639448 -7.53305418 -17.2336276 -10.67999457 0 0 Z M-40.5859375 24.5625 C-43.78101867 29.18695959 -44.58564589 33.71916469 -43.7734375 39.28125 C-41.83089048 45.48111563 -38.14170289 49.71803455 -32.7734375 53.28125 C-27.11372247 55.87528605 -22.11379145 56.06136798 -16.2109375 54.09375 C-10.70326459 51.18970428 -6.5707122 47.99671906 -3.7734375 42.28125 C-2.98503643 36.20843094 -2.83692638 30.33437052 -5.3984375 24.71875 C-10.69397445 19.28385681 -15.23746269 15.32286425 -23.0859375 14.90625 C-30.75657709 15.12286275 -35.95019548 18.61665697 -40.5859375 24.5625 Z " fill="#00AD93" transform="translate(923.7734375,77.71875)"/>
<path d="M0 0 C0 0.66 0 1.32 0 2 C0.556875 2.226875 1.11375 2.45375 1.6875 2.6875 C7.16626091 5.797067 10.10498896 10.44903512 12.75 16 C13.20439453 16.90492187 13.20439453 16.90492187 13.66796875 17.828125 C17.82807044 26.33322179 18.55229966 36.74233446 15.8125 45.875 C10.46888164 59.85061725 3.67626474 67.14601312 -9.6328125 73.65234375 C-18.48625268 77.19577398 -27.74642716 76.69430062 -36.87109375 74.484375 C-38.02407959 74.20819336 -39.17706543 73.93201172 -40.36499023 73.64746094 C-41.23454346 73.43379883 -42.10409668 73.22013672 -43 73 C-43.03963867 74.09465576 -43.07927734 75.18931152 -43.12011719 76.31713867 C-43.27261438 80.39015527 -43.44998236 84.46177821 -43.63476562 88.53344727 C-43.71118769 90.2935834 -43.78092138 92.0540235 -43.84375 93.81469727 C-43.93540416 96.35022374 -44.05131289 98.88367225 -44.171875 101.41796875 C-44.20652863 102.59325386 -44.20652863 102.59325386 -44.24188232 103.7922821 C-44.5064693 108.72184051 -45.32456093 111.40809363 -49 115 C-52.57400852 116.78700426 -56.48144639 116.32833592 -60.3125 115.5 C-63.78920895 112.40959205 -63.94786382 106.53533645 -64.37890625 102.109375 C-64.44955049 100.6566786 -64.51003676 99.20346657 -64.5625 97.75 C-64.59786865 96.9242749 -64.6332373 96.0985498 -64.66967773 95.24780273 C-64.79394617 92.16556493 -64.89867198 89.0830796 -65 86 C-65.02191406 85.34340393 -65.04382813 84.68680786 -65.06640625 84.01031494 C-65.57830187 68.59612458 -66.06067481 53.17279852 -66.1875 37.75 C-66.20047119 36.954729 -66.21344238 36.15945801 -66.22680664 35.34008789 C-66.2381741 28.41578896 -64.67284697 22.26634376 -62.125 15.8125 C-61.81820313 15.01457031 -61.51140625 14.21664062 -61.1953125 13.39453125 C-57.34943713 5.69021229 -50.01219783 0.22899879 -42.625 -3.875 C-28.30755853 -8.3183439 -12.93328702 -8.32560491 0 0 Z M-39.75 20.6875 C-43.1779846 25.28463167 -45.40489548 30.18605619 -44.9375 36 C-43.67658323 42.62956242 -41.33262955 47.40096547 -35.8125 51.4375 C-31.29671681 54.13514462 -27.28659434 55.54688907 -22 55 C-15.40319515 53.14599602 -10.35350825 49.92502015 -6.77734375 43.9609375 C-4.54851066 39.56371426 -3.35449851 35.94445195 -4.32421875 31.046875 C-6.35736404 24.88867771 -9.37506724 19.46149708 -15 16 C-23.83446708 13.19420359 -33.05842828 14.14800945 -39.75 20.6875 Z " fill="#00AD93" transform="translate(389,80)"/>
<path d="M0 0 C1.95675766 1.40062654 3.76073306 2.72051645 5.4140625 4.46875 C5.4140625 5.12875 5.4140625 5.78875 5.4140625 6.46875 C6.0740625 6.46875 6.7340625 6.46875 7.4140625 6.46875 C7.4140625 7.12875 7.4140625 7.78875 7.4140625 8.46875 C8.0740625 8.46875 8.7340625 8.46875 9.4140625 8.46875 C17.23516522 19.53634819 19.59228233 29.01616411 18.4140625 42.46875 C16.63768869 50.53157245 12.49513153 57.9985217 7.4140625 64.46875 C6.7540625 64.46875 6.0940625 64.46875 5.4140625 64.46875 C5.4140625 65.12875 5.4140625 65.78875 5.4140625 66.46875 C-5.97183797 74.69317308 -16.6518171 77.30723646 -30.5859375 76.46875 C-34.12018797 75.84707436 -37.27829847 74.84928077 -40.5859375 73.46875 C-41.70548828 73.01048828 -41.70548828 73.01048828 -42.84765625 72.54296875 C-52.28026589 68.01597459 -59.83890857 59.22506698 -63.31640625 49.40625 C-66.02220446 37.93551571 -65.86098423 25.28923549 -60.12109375 14.7890625 C-58.70134657 12.56051069 -57.3389652 10.44639963 -55.5859375 8.46875 C-54.9259375 8.46875 -54.2659375 8.46875 -53.5859375 8.46875 C-53.49828125 7.870625 -53.410625 7.2725 -53.3203125 6.65625 C-51.85847048 2.30182697 -47.46207429 0.510546 -43.5859375 -1.53125 C-29.60249145 -7.54523867 -13.36116029 -7.91174446 0 0 Z M-40.0859375 23.09375 C-43.94308667 28.85804514 -44.24592695 35.09174608 -42.9609375 41.78125 C-40.61683785 48.06769906 -36.1870939 51.05935045 -30.5859375 54.46875 C-24.50770462 56.49482763 -20.03114733 55.96481268 -14.3359375 53.28125 C-9.06242079 50.4180216 -5.91965116 46.99800519 -3.5859375 41.46875 C-2.53739194 34.62072678 -2.75100982 28.78183061 -6.5234375 22.84375 C-10.24581392 18.22079865 -13.76093808 16.32685217 -19.5859375 15.46875 C-20.25753906 15.36949219 -20.92914062 15.27023438 -21.62109375 15.16796875 C-28.90562064 14.66109312 -35.39389397 17.54860765 -40.0859375 23.09375 Z " fill="#00AD93" transform="translate(837.5859375,77.53125)"/>
<path d="M0 0 C1.65 0 3.3 0 5 0 C7.63101179 4.62804484 7.73849546 8.78577449 7 14 C3.6930422 23.1040153 -1.30269293 29.69644361 -10 34 C-13.15469861 35.23921943 -16.32281002 36.41167868 -19.51171875 37.55834961 C-24.72139575 39.45511735 -29.74264246 41.62166008 -34.75 44 C-35.46293213 44.33757324 -36.17586426 44.67514648 -36.91040039 45.02294922 C-40.10080538 46.55124721 -43.23735105 48.12808105 -46.3515625 49.80859375 C-52.99387305 53.38720292 -58.42310987 54.97016972 -66 55 C-66.66 53.68 -67.32 52.36 -68 51 C-64.51181249 48.60187109 -61.34343156 47.52911704 -57.23828125 46.5859375 C-51.49685098 45.08294528 -46.07951016 42.83124322 -41.125 39.5625 C-35.08594563 35.60504353 -28.2877391 33.22498999 -21.55078125 30.71484375 C-12.49581753 27.3385916 -5.22312546 24.6074072 -0.75 15.4375 C0.3701672 10.30340033 0.15242764 5.2333491 0 0 Z " fill="#1FAF99" transform="translate(154,82)"/>
<path d="M0 0 C1.32 0.33 2.64 0.66 4 1 C4.6273874 8.52864876 2.05292575 13.17029153 -2.3125 19.1875 C-10.11522194 27.35313924 -19.09321992 31.16327111 -30.4375 31.5 C-37.827578 31.29618784 -45.77430823 30.20538585 -51.828125 25.61328125 C-53 24 -53 24 -53 20 C-48.98020235 20.42763805 -45.58521599 21.10298213 -41.8125 22.5625 C-33.1584016 25.53045905 -24.76620389 24.65489644 -16.40625 21.18359375 C-8.86124995 17.47233561 -6.36973927 12.28915232 -3 5 C-2.02483532 3.31868158 -1.03995432 1.64203313 0 0 Z " fill="#21AF99" transform="translate(120,138)"/>
<path d="M0 0 C1.93359375 0.1953125 1.93359375 0.1953125 4 1 C5.16015625 2.7421875 5.16015625 2.7421875 6.0625 4.875 C7.35981991 7.89279997 8.67996984 9.69968681 11 12 C11 12.66 11 13.32 11 14 C20.26007188 17.48073624 27.53056165 18.57983339 37.26953125 16.546875 C41.16226514 15.76721442 45.0508766 15.38843837 49 15 C49 17.25 49 17.25 48 20 C39.81340928 25.69501963 30.6054734 25.6737306 21 25 C13.36018089 23.4265385 7.01982308 20.0332146 2 14 C-2.3079489 6.9549565 -2.3079489 6.9549565 -1.65234375 2.79296875 C-1 1 -1 1 0 0 Z " fill="#22AE99" transform="translate(52,128)"/>
<path d="M0 0 C5.30612566 1.39177066 9.69277332 1.70657556 15 -0.0625 C18.10866243 -1.09872081 19.71260361 -0.91173423 22.8125 0 C22.625 1.8125 22.625 1.8125 21.8125 4 C16.41560853 7.93827215 11.37879636 8.48765241 4.8125 8 C3.20307447 7.69306147 1.59875623 7.35838574 0 7 C-5.35414087 5.83965987 -10.72661268 5.38212922 -16.1875 6 C-17.1775 6.66 -18.1675 7.32 -19.1875 8 C-21.375 7.625 -21.375 7.625 -23.1875 7 C-23.1875 5.68 -23.1875 4.36 -23.1875 3 C-15.57283308 -1.59753475 -8.62512172 -2.33844164 0 0 Z " fill="#24AE98" transform="translate(80.1875,113)"/>
<path d="M0 0 C4.28364261 0.47596029 6.26023924 2.83873758 9 6 C12.68455157 11.3362471 12.78983033 16.73343406 12 23 C10.51644742 28.00603898 8.38943226 32.94069873 4 36 C1.25 36.25 1.25 36.25 -1 36 C-1 31.83629364 -0.84951902 31.40289114 1.4375 28.3125 C4.2444 23.989874 5.48747954 20.18172692 5 15 C3.59454423 10.92559791 1.37919508 7.56879263 -1 4 C-0.625 1.8125 -0.625 1.8125 0 0 Z " fill="#1EAE98" transform="translate(109,62)"/>
<path d="M0 0 C1.8125 0.0625 1.8125 0.0625 4 1 C5.38938077 2.96147874 6.7260411 4.96166576 8 7 C10.83269666 8.41634833 13.47466438 8.3463005 16.625 8.5625 C17.81351563 8.64628906 19.00203125 8.73007813 20.2265625 8.81640625 C21.14179688 8.87699219 22.05703125 8.93757812 23 9 C22.625 11.4375 22.625 11.4375 22 14 C17.98367785 16.00816108 13.35460843 15.61881278 9 15 C4.31989666 12.82512845 0.86584265 10.29876398 -2 6 C-1.45945946 1.45945946 -1.45945946 1.45945946 0 0 Z " fill="#26AE99" transform="translate(134,127)"/>
<path d="M0 0 C0.75990234 -0.01224609 1.51980469 -0.02449219 2.30273438 -0.03710938 C6.48030468 -0.04799792 9.97622884 0.02677927 13.6875 2.1875 C14.0175 3.1775 14.3475 4.1675 14.6875 5.1875 C14.0275 5.8475 13.3675 6.5075 12.6875 7.1875 C9.7530735 7.14326241 6.91786984 6.99837874 4 6.75 C-1.65357799 6.28462805 -6.71678612 6.16124458 -12.3125 7.1875 C-12.6425 6.1975 -12.9725 5.2075 -13.3125 4.1875 C-9.16322548 -0.1503779 -5.81906181 0.00486137 0 0 Z " fill="#23AF9A" transform="translate(77.3125,98.8125)"/>
<path d="M0 0 C0 1.32 0 2.64 0 4 C-1.56259152 5.56259152 -3.4005851 5.34114552 -5.5625 5.625 C-10.86908549 6.58914357 -13.56591126 8.76678664 -17.2109375 12.63671875 C-19 14 -19 14 -21.2265625 13.70703125 C-21.81179687 13.47371094 -22.39703125 13.24039063 -23 13 C-22.92009578 10.28325638 -22.44173356 8.51364367 -20.65625 6.4375 C-14.33651111 0.69228283 -8.4319858 -1.93233008 0 0 Z " fill="#29AF9B" transform="translate(154,67)"/>
<path d="M0 0 C5.45137086 0.64133775 9.22067625 2.83157585 12.71484375 7.08984375 C15.64965504 11.24001219 17.38625024 13.78562176 17 19 C15.35 19.33 13.7 19.66 12 20 C11.5978125 19.00419922 11.5978125 19.00419922 11.1875 17.98828125 C8.28492349 11.44793615 5.49559106 8.06243747 -1 5 C-0.67 3.35 -0.34 1.7 0 0 Z " fill="#21AE99" transform="translate(155,55)"/>
<path d="M0 0 C0.99 0.33 1.98 0.66 3 1 C3 4.35540759 2.55847827 6.39519058 0.2578125 8.88671875 C-8.20927437 16.28378915 -8.20927437 16.28378915 -13.6875 16.125 C-14.49574219 16.10695313 -15.30398437 16.08890625 -16.13671875 16.0703125 C-16.75160156 16.04710938 -17.36648437 16.02390625 -18 16 C-18 14.68 -18 13.36 -18 12 C-17.18015625 11.62488281 -16.3603125 11.24976562 -15.515625 10.86328125 C-14.43796875 10.35152344 -13.3603125 9.83976562 -12.25 9.3125 C-11.18265625 8.81363281 -10.1153125 8.31476563 -9.015625 7.80078125 C-5.81608111 5.89017279 -4.18907813 3.97300476 -2 1 C-1.34 0.67 -0.68 0.34 0 0 Z " fill="#26AF9A" transform="translate(167,111)"/>
<path d="M0 0 C0.4375 2.625 0.4375 2.625 0 6 C-3.30291202 9.87614469 -7.93066452 13.71995114 -13.140625 14.1953125 C-13.83671875 14.17210938 -14.5328125 14.14890625 -15.25 14.125 C-17.10625 14.063125 -17.10625 14.063125 -19 14 C-19 12.68 -19 11.36 -19 10 C-16.48046875 8.18359375 -16.48046875 8.18359375 -13.1875 6.4375 C-8.96524695 4.27647673 -8.96524695 4.27647673 -5.36328125 1.28515625 C-4 0 -4 0 0 0 Z " fill="#1FAE98" transform="translate(140,93)"/>
<path d="M0 0 C1.09054688 0.36351562 2.18109375 0.72703125 3.3046875 1.1015625 C5.58921557 1.37737113 7.88287133 1.5859411 10.1796875 1.7265625 C11.90832031 1.83871094 11.90832031 1.83871094 13.671875 1.953125 C14.97511719 2.02660156 14.97511719 2.02660156 16.3046875 2.1015625 C15.73123813 4.96880936 15.443236 5.963014 13.3046875 8.1015625 C10.40625 8.3671875 10.40625 8.3671875 6.9296875 8.3515625 C5.21652344 8.35929687 5.21652344 8.35929687 3.46875 8.3671875 C0.45871978 8.1144936 -1.26215835 7.85948727 -3.6953125 6.1015625 C-4.4453125 2.9765625 -4.4453125 2.9765625 -4.6953125 0.1015625 C-2.6953125 -0.8984375 -2.6953125 -0.8984375 0 0 Z " fill="#21AF99" transform="translate(123.6953125,52.8984375)"/>
<path d="M0 0 C-0.24668675 4.19367478 -0.55303742 6.4537124 -3.25 9.75 C-7.99380202 13.63129256 -10.73289406 15.43723995 -17 15 C-17.33 13.68 -17.66 12.36 -18 11 C-17.30132812 10.70867187 -16.60265625 10.41734375 -15.8828125 10.1171875 C-10.03166733 7.69619337 -10.03166733 7.69619337 -6.5 2.75 C-6.335 1.8425 -6.17 0.935 -6 0 C-3.50907189 -1.24546405 -2.58919267 -0.7767578 0 0 Z " fill="#26AF9A" transform="translate(106,77)"/>
<path d="M0 0 C1.32 0 2.64 0 4 0 C4.75 1.625 4.75 1.625 5 4 C2.45936913 8.77638603 -0.56486787 12.01307428 -5 15 C-7.875 14.8125 -7.875 14.8125 -10 14 C-9.67201637 10.93881949 -9.13130744 10.10646549 -6.6875 8.125 C-5.800625 7.42375 -4.91375 6.7225 -4 6 C-3.319375 4.9275 -2.63875 3.855 -1.9375 2.75 C-1.298125 1.8425 -0.65875 0.935 0 0 Z " fill="#21AE99" transform="translate(135,148)"/>
<path d="M0 0 C2.5 0.3125 2.5 0.3125 5 1 C6.22485812 3.44971624 6.16722808 5.14234461 6.1875 7.875 C6.20167969 8.73867187 6.21585938 9.60234375 6.23046875 10.4921875 C5.98859252 13.1241288 5.32983541 14.73980544 4 17 C2.35 16.67 0.7 16.34 -1 16 C-1.02685095 13.52076199 -1.04676547 11.0418116 -1.0625 8.5625 C-1.07506836 7.50192383 -1.07506836 7.50192383 -1.08789062 6.41992188 C-1.09653588 4.61306441 -1.05220011 2.80612397 -1 1 C-0.67 0.67 -0.34 0.34 0 0 Z " fill="#29AE9A" transform="translate(169,86)"/>
<path d="M0 0 C1.31822337 2.63644674 0.70862518 3.59857037 0 6.4375 C-1.69758348 14.90278296 -0.6549955 23.45850462 0 32 C-4.23224763 26.78216045 -5.68308712 20.69425374 -5 14 C-3.68003619 9.21406671 -1.91903767 4.57616675 0 0 Z " fill="#001F1A" transform="translate(592,97)"/>
<path d="M0 0 C1.67542976 0.28604898 3.34385343 0.61781233 5 1 C5.625 2.875 5.625 2.875 6 5 C5.34 5.66 4.68 6.32 4 7 C1.375 6.625 1.375 6.625 -1 6 C-1.042721 4.33388095 -1.04063832 2.66617115 -1 1 C-0.67 0.67 -0.34 0.34 0 0 Z " fill="#32AD9A" transform="translate(72,124)"/>
<path d="M0 0 C-1.58667578 3.90285767 -4.13350481 6.33520982 -7.125 9.25 C-8.03507813 10.14203125 -8.94515625 11.0340625 -9.8828125 11.953125 C-10.58148437 12.62859375 -11.28015625 13.3040625 -12 14 C-12 9.8783707 -10.47821082 8.2608037 -8 5 C-2.89583333 0 -2.89583333 0 0 0 Z " fill="#006152" transform="translate(524,80)"/>
</svg>
